# xmcd
#
# Track frame offsets:
#	150
#	8916
#	20870
#	34937
#	56456
#	76394
#	89326
#	106190
#	116847
#	131302
#	145317
#	182657
#	218169
#	257273
#	294087
#
# Disc length: 4376 seconds
#
# Revision: 1
# Processed by: cddbd v1.5.2PL0 Copyright (c) Steve Scherf et al.
# Submitted via: audiograbber 1.83.01
#
DISCID=c811160f
DTITLE=Various Artist - Summer Sounds Vol1 (Daily Mirror, 2005)
DYEAR=1900
DGENRE=Pop
TTITLE0=The Beach Boys - Surfin Safari
TTITLE1=Martha Reeves - (Love Is Like A) Heat Wave
TTITLE2=KC and The Sunshine Band - That's The Way (I Like It)
TTITLE3=Starship - We Built This City
TTITLE4=Animals - House Of The Rising Sun
TTITLE5=Tom Jones - Take Me To The River
TTITLE6=Simply Red - Fake (Radio Mix)
TTITLE7=Kool and The Gang - Get Down On It (live)
TTITLE8=Andy Williams - Can't Take My Eyes Off You (live)
TTITLE9=José Feliciano - Light My Fire
TTITLE10=Various Artist - Miscellaneous
TTITLE11=Various Artist - Demo
TTITLE12=Who Cares? - Songs
TTITLE13=Various Artist - That  No-one
TTITLE14=Various Artist - Wants
EXTD=
EXTT0=
EXTT1=
EXTT2=
EXTT3=
EXTT4=
EXTT5=
EXTT6=
EXTT7=
EXTT8=
EXTT9=
EXTT10=
EXTT11=
EXTT12=
EXTT13=
EXTT14=
PLAYORDER=
